<?xml version="1.0" encoding="utf-8"?>
<!-- Generator: Adobe Illustrator 19.2.1, SVG Export Plug-In . SVG Version: 6.00 Build 0)  -->
<svg version="1.1" id="Layer_1" xmlns="http://www.w3.org/2000/svg" xmlns:xlink="http://www.w3.org/1999/xlink" x="0px" y="0px"
	 viewBox="0 0 230 230" style="enable-background:new 0 0 230 230;" xml:space="preserve">
<style type="text/css">
	.st0{opacity:0.5;fill:#FFFFFF;enable-background:new    ;}
	.st1{opacity:0.5;fill:#35495E;enable-background:new    ;}
	.st2{opacity:0.7;fill:#1694D3;enable-background:new    ;}
	.st3{fill:#34495E;}
	.st4{fill:#FFFFFF;}
	.st5{fill:none;stroke:#FFFFFF;stroke-width:1.75;stroke-miterlimit:10;}
	.st6{fill:#FFFFFF;stroke:#FFFFFF;stroke-width:1.75;stroke-miterlimit:10;}
	.st7{fill:none;stroke:#FFFFFF;stroke-miterlimit:10;}
	.st8{fill:none;stroke:#FFFFFF;stroke-miterlimit:10;stroke-dasharray:2.6776,2.6776;}
</style>
<rect class="st0" width="230" height="230"/>
<rect x="50" class="st1" width="130" height="48"/>
<rect y="50" class="st2" width="48" height="130"/>
<rect x="182" y="50" class="st2" width="48" height="130"/>
<rect x="50" y="182" class="st2" width="130" height="48"/>
<rect x="50" y="50" class="st2" width="130" height="130"/>
<rect x="182" y="182" class="st3" width="48" height="48"/>
<g>
	<polygon class="st4" points="86.5,104 86.5,126 105.6,115 	"/>
</g>
<g>
	<rect x="123.4" y="105" class="st4" width="8" height="20"/>
	<rect x="135.4" y="105" class="st4" width="8" height="20"/>
</g>
<g>
	<polygon class="st4" points="17.8,114.7 17.8,104.4 13.5,104.4 13.5,125.6 17.8,125.6 17.8,115.3 36.5,126 36.5,104 	"/>
</g>
<g>
	<polygon class="st4" points="212.1,114.7 212.1,104.4 216.4,104.4 216.4,125.6 212.1,125.6 212.1,115.3 193.6,126 193.6,104 	"/>
</g>
<g>
	<rect x="105" y="196" class="st4" width="20" height="20"/>
</g>
<g>
	<polygon class="st4" points="115,31 126.3,19.7 123.7,17 115,25.7 106.3,17 103.7,19.7 	"/>
</g>
<rect x="182" class="st3" width="48" height="48"/>
<path class="st4" d="M220.5,25.6v-3.3l-4-1.3l-0.9-2.3l1.8-3.8l-2.3-2.3l-3.8,1.9l-2.3-0.9l-1.4-4h-3.3l-1.3,4l-2.3,0.9l-3.8-1.8
	l-2.3,2.3l1.9,3.8l-0.9,2.3l-4,1.4v3.3l4,1.3l0.9,2.3l-1.8,3.8l2.3,2.3l3.8-1.9l2.3,0.9l1.4,4h3.3l1.3-4l2.3-0.9l3.8,1.8l2.3-2.3
	l-1.9-3.8l1-2.3L220.5,25.6z M210.4,28.4c-1.2,1.2-2.7,1.8-4.4,1.8s-3.2-0.6-4.4-1.8c-1.2-1.2-1.8-2.7-1.8-4.4
	c0-1.7,0.6-3.2,1.8-4.4c1.2-1.2,2.7-1.8,4.4-1.8s3.2,0.6,4.4,1.8c1.2,1.2,1.8,2.7,1.8,4.4C212.2,25.7,211.6,27.2,210.4,28.4z"/>
<rect class="st3" width="48" height="48"/>
<g>
	<path class="st4" d="M209.4,198.8h-7.2c-2,0-3.7,0.7-5.1,2.1c-1.4,1.4-2.1,3.1-2.1,5.1s0.7,3.7,2.1,5.1l1.5-1.5
		c-1-1-1.5-2.2-1.5-3.6c0-1.4,0.5-2.6,1.5-3.6s2.2-1.5,3.6-1.5h7.2v3.3l4.3-4.3l-4.3-4.3V198.8z"/>
	<path class="st4" d="M202.6,213.2h7.2c2,0,3.7-0.7,5.1-2.1c1.4-1.4,2.1-3.1,2.1-5.1s-0.7-3.7-2.1-5.1l-1.5,1.5c1,1,1.5,2.2,1.5,3.6
		c0,1.4-0.5,2.6-1.5,3.6s-2.2,1.5-3.6,1.5h-7.2v-3.3l-4.3,4.3l4.3,4.3V213.2z"/>
</g>
<rect y="182" class="st3" width="48" height="48"/>
<g>
	<path class="st4" d="M22.9,202.2c-0.3-0.4-0.6-0.9-1-1.3c-1.4-1.4-3.1-2.1-5.1-2.1h-3.9v2.2h3.9c1.4,0,2.6,0.5,3.6,1.5
		s1.5,2.2,1.5,3.6c0,1.4-0.5,2.6-1.5,3.6s-2.2,1.5-3.6,1.5h-3.9v2.2h3.9c2,0,3.7-0.7,5.1-2.1c0.4-0.4,0.7-0.8,1-1.3
		c0.3,0.4,0.6,0.9,1,1.3c1.4,1.4,3.1,2.1,5.1,2.1h1.7v3.3l4.3-4.3l-4.3-4.3v3.3H29c-1.4,0-2.6-0.5-3.6-1.5s-1.5-2.2-1.5-3.6
		c0-1.4,0.5-2.6,1.5-3.6s2.2-1.5,3.6-1.5h1.7v3.3l4.3-4.3l-4.3-4.3v3.3H29c-2,0-3.7,0.7-5.1,2.1C23.5,201.3,23.2,201.7,22.9,202.2
		L22.9,202.2z"/>
</g>
<g>
	<rect x="10" y="10" class="st5" width="28" height="28"/>
	<rect x="10" y="24" class="st6" width="14" height="14"/>
	<g>
		<g>
			<line class="st7" x1="38.5" y1="9.5" x2="37.4" y2="10.6"/>
			<line class="st8" x1="35.5" y1="12.5" x2="25.1" y2="22.9"/>
			<line class="st7" x1="24.2" y1="23.8" x2="23.1" y2="24.9"/>
		</g>
	</g>
</g>
</svg>
