<?xml version="1.0" encoding="utf-8"?>
<!-- Generator: Adobe Illustrator 19.2.1, SVG Export Plug-In . SVG Version: 6.00 Build 0)  -->
<svg version="1.1" id="Layer_1" xmlns="http://www.w3.org/2000/svg" xmlns:xlink="http://www.w3.org/1999/xlink" x="0px" y="0px"
	 viewBox="0 0 154 138" style="enable-background:new 0 0 154 138;" xml:space="preserve">
<style type="text/css">
	.st0{opacity:0.7;fill:#1F94D2;enable-background:new    ;}
	.st1{opacity:0.5;fill:#364A5E;enable-background:new    ;}
	.st2{fill:#FFFFFF;}
</style>
<rect x="47" y="46.5" class="st0" width="60" height="45"/>
<rect x="54.6" y="93" class="st0" width="45" height="45"/>
<g>
	<rect x="54.5" class="st1" width="45" height="45"/>
	<g>
		<path class="st2" d="M61.9,27.9V17.1H63c0.1,0,0.2,0,0.3,0s0.1,0.1,0.2,0.2l3.7,6.7c0.1,0.1,0.1,0.3,0.2,0.4
			c0.1,0.1,0.1,0.3,0.2,0.4c0-0.1,0.1-0.3,0.2-0.4c0.1-0.1,0.1-0.3,0.2-0.4l3.6-6.7c0.1-0.1,0.1-0.2,0.2-0.2c0.1,0,0.2,0,0.3,0h1.1
			v10.8h-1.3V20c0-0.1,0-0.2,0-0.3c0-0.1,0-0.2,0-0.4L68.2,26c-0.1,0.2-0.3,0.3-0.5,0.3h-0.2c-0.2,0-0.4-0.1-0.5-0.3l-3.7-6.8
			c0,0.1,0,0.3,0,0.4s0,0.2,0,0.4V28L61.9,27.9L61.9,27.9z"/>
		<path class="st2" d="M75.9,27.9V17.1h3.1c0.7,0,1.3,0.1,1.8,0.2c0.5,0.2,0.9,0.4,1.3,0.7c0.3,0.3,0.6,0.7,0.8,1.1
			c0.2,0.4,0.3,0.9,0.3,1.4s-0.1,1-0.3,1.4c-0.2,0.4-0.4,0.8-0.8,1.1c-0.3,0.3-0.8,0.5-1.3,0.7c-0.5,0.2-1.1,0.3-1.8,0.3h-1.8v4
			C77.3,27.9,75.9,27.9,75.9,27.9z M77.4,22.7h1.8c0.4,0,0.8-0.1,1.1-0.2c0.3-0.1,0.6-0.3,0.8-0.5c0.2-0.2,0.4-0.4,0.5-0.7
			s0.2-0.6,0.2-0.9c0-0.7-0.2-1.2-0.6-1.6s-1.1-0.6-2-0.6h-1.8V22.7z"/>
		<path class="st2" d="M84.9,27.9V17.1h4c0.8,0,1.5,0.1,2.2,0.4c0.7,0.3,1.2,0.6,1.7,1.1c0.5,0.5,0.8,1.1,1.1,1.7
			c0.3,0.7,0.4,1.4,0.4,2.2c0,0.8-0.1,1.6-0.4,2.2c-0.3,0.7-0.6,1.3-1.1,1.7c-0.5,0.5-1,0.9-1.7,1.1c-0.7,0.3-1.4,0.4-2.2,0.4h-4
			V27.9z M86.4,26.7h2.5c0.6,0,1.1-0.1,1.6-0.3c0.5-0.2,0.9-0.5,1.2-0.8s0.6-0.8,0.8-1.3c0.2-0.5,0.3-1.1,0.3-1.8s-0.1-1.3-0.3-1.8
			c-0.2-0.5-0.4-1-0.8-1.4c-0.3-0.4-0.7-0.7-1.2-0.8c-0.5-0.2-1-0.3-1.6-0.3h-2.5C86.4,18.4,86.4,26.7,86.4,26.7z"/>
	</g>
</g>
<g>
	<polygon class="st2" points="52.3,56.9 52.3,81.1 73.3,69 	"/>
</g>
<g>
	<rect x="79.2" y="58" class="st2" width="8.8" height="22"/>
	<rect x="92.4" y="58" class="st2" width="8.8" height="22"/>
</g>
<g>
	<rect x="66" y="104.5" class="st2" width="22" height="22"/>
</g>
<rect x="109" y="46.5" class="st0" width="45" height="45"/>
<rect y="46.5" class="st0" width="45" height="45"/>
<g>
	<polygon class="st2" points="14.7,68.6 14.7,57.3 10,57.3 10,80.7 14.7,80.7 14.7,69.4 35,81.1 35,56.9 	"/>
</g>
<g>
	<polygon class="st2" points="139.3,68.6 139.3,57.3 144,57.3 144,80.7 139.3,80.7 139.3,69.4 119,81.1 119,56.9 	"/>
</g>
</svg>
