<?xml version="1.0" encoding="utf-8"?>
<!-- Generator: Adobe Illustrator 19.2.1, SVG Export Plug-In . SVG Version: 6.00 Build 0)  -->
<svg version="1.1" id="Layer_1" xmlns="http://www.w3.org/2000/svg" xmlns:xlink="http://www.w3.org/1999/xlink" x="0px" y="0px"
	 viewBox="0 0 230 230" style="enable-background:new 0 0 230 230;" xml:space="preserve">
<style type="text/css">
	.st0{opacity:0.5;fill:#FFFFFF;enable-background:new    ;}
	.st1{opacity:0.5;fill:#35495E;enable-background:new    ;}
	.st2{opacity:0.7;fill:#1694D3;enable-background:new    ;}
	.st3{fill:#FFFFFF;}
	.st4{fill:#231F20;}
</style>
<rect class="st0" width="230" height="230"/>
<rect x="50" class="st1" width="130" height="48"/>
<rect y="50" class="st2" width="48" height="130"/>
<rect x="182" y="50" class="st2" width="48" height="130"/>
<rect x="50" y="182" class="st2" width="130" height="48"/>
<rect x="50" y="50" class="st2" width="130" height="130"/>
<g>
	<path class="st3" d="M35.3,104.7l-17.5,10.1c-0.1,0.1-0.1,0.2-0.2,0.3v-9.7c0-0.2-0.1-0.5-0.3-0.6c-0.2-0.2-0.4-0.3-0.6-0.3h-1.8
		c-0.2,0-0.5,0.1-0.6,0.3s-0.3,0.4-0.3,0.6v20.1c0,0.2,0.1,0.5,0.3,0.6s0.4,0.3,0.6,0.3h1.8c0.2,0,0.5-0.1,0.6-0.3
		c0.2-0.2,0.3-0.4,0.3-0.6v-9.7c0,0.1,0.1,0.2,0.2,0.3l17.5,10.1c0.2,0.2,0.3,0.2,0.5,0.2c0.1-0.1,0.2-0.2,0.2-0.5v-21
		c0-0.2-0.1-0.4-0.2-0.5C35.7,104.5,35.5,104.5,35.3,104.7L35.3,104.7z"/>
</g>
<g>
	<path class="st3" d="M194.7,126.3l17.5-10.1c0.1-0.1,0.1-0.2,0.2-0.3v9.7c0,0.2,0.1,0.5,0.3,0.6s0.4,0.3,0.6,0.3h1.8
		c0.2,0,0.5-0.1,0.6-0.3s0.3-0.4,0.3-0.6v-20.1c0-0.2-0.1-0.5-0.3-0.6s-0.4-0.3-0.6-0.3h-1.8c-0.2,0-0.5,0.1-0.6,0.3
		s-0.3,0.4-0.3,0.6v9.7c0-0.1-0.1-0.2-0.2-0.3l-17.5-10.1c-0.2-0.2-0.3-0.2-0.5-0.2c-0.1,0.1-0.2,0.2-0.2,0.5v21
		c0,0.2,0.1,0.4,0.2,0.5C194.3,126.5,194.5,126.5,194.7,126.3L194.7,126.3z"/>
</g>
<g>
	<path class="st3" d="M105.8,115.9c0.2-0.1,0.3-0.3,0.3-0.4s-0.1-0.3-0.3-0.4l-19-10.5c-0.2-0.1-0.4-0.1-0.6,0s-0.2,0.3-0.2,0.5v21
		c0,0.2,0.1,0.4,0.2,0.5c0.2,0.1,0.3,0.1,0.6,0L105.8,115.9z"/>
</g>
<g>
	<path class="st3" d="M125.9,194.9c0-0.2-0.1-0.5-0.3-0.6c-0.2-0.1-0.4-0.3-0.6-0.3h-20.1c-0.2,0-0.5,0.1-0.6,0.3s-0.3,0.4-0.3,0.6
		V215c0,0.2,0.1,0.5,0.3,0.6c0.2,0.1,0.4,0.3,0.6,0.3H125c0.2,0,0.5-0.1,0.6-0.3s0.3-0.4,0.3-0.6V194.9z"/>
</g>
<g>
	<path class="st3" d="M143.9,104.9c0-0.2-0.1-0.5-0.3-0.6s-0.4-0.3-0.6-0.3h-7.3c-0.2,0-0.5,0.1-0.6,0.3s-0.3,0.4-0.3,0.6V125
		c0,0.2,0.1,0.5,0.3,0.6s0.4,0.3,0.6,0.3h7.3c0.2,0,0.5-0.1,0.6-0.3s0.3-0.4,0.3-0.6V104.9z"/>
	<path class="st3" d="M131.1,104.9c0-0.2-0.1-0.5-0.3-0.6s-0.4-0.3-0.6-0.3h-7.3c-0.2,0-0.5,0.1-0.6,0.3s-0.3,0.4-0.3,0.6V125
		c0,0.2,0.1,0.5,0.3,0.6s0.4,0.3,0.6,0.3h7.3c0.2,0,0.5-0.1,0.6-0.3s0.3-0.4,0.3-0.6V104.9z"/>
</g>
<rect x="182" y="182" class="st1" width="48" height="48"/>
<g>
	<path class="st4" d="M196,214h-9c-0.6,0-1-0.4-1-1v-3c0-0.6,0.4-1,1-1h9c0.6,0,1,0.4,1,1v3C197,213.6,196.6,214,196,214z"/>
	<path class="st4" d="M208,214h-5c-0.6,0-1-0.4-1-1v-3c0-0.6,0.4-1,1-1h5c0.6,0,1,0.4,1,1v3C209,213.6,208.6,214,208,214z"/>
	<path class="st4" d="M224,214h-9c-0.6,0-1-0.4-1-1v-3c0-0.6,0.4-1,1-1h9c0.6,0,1,0.4,1,1v3C225,213.6,224.6,214,224,214z"/>
</g>
<rect x="182.2" class="st1" width="48" height="48"/>
<rect x="182" class="st4" width="48" height="7"/>
<rect x="182.2" y="41" class="st4" width="48" height="7"/>
<g>
	<path class="st3" d="M130.1,19.3c0.2-0.2,0.4-0.5,0.4-0.9s-0.1-0.6-0.4-0.9l-3.2-3.2c-0.2-0.2-0.5-0.4-0.9-0.4
		c-0.3,0-0.6,0.1-0.9,0.4l-10.2,10.2l-10.2-10.2c-0.2-0.2-0.5-0.4-0.9-0.4c-0.3,0-0.6,0.1-0.9,0.4l-3.2,3.2
		c-0.2,0.2-0.4,0.5-0.4,0.9s0.1,0.6,0.4,0.9l14.3,14.3c0.2,0.2,0.5,0.4,0.9,0.4c0.3,0,0.6-0.1,0.9-0.4L130.1,19.3z"/>
</g>
</svg>
