<?xml version="1.0" encoding="utf-8"?>
<!-- Generator: Adobe Illustrator 19.2.1, SVG Export Plug-In . SVG Version: 6.00 Build 0)  -->
<svg version="1.1" xmlns="http://www.w3.org/2000/svg" xmlns:xlink="http://www.w3.org/1999/xlink" x="0px" y="0px"
	 viewBox="0 0 144 144" style="enable-background:new 0 0 144 144;" xml:space="preserve">
<style type="text/css">
	.st0{opacity:0.7;fill:#1F94D2;enable-background:new    ;}
	.st1{opacity:0.7;fill:#34495E;enable-background:new    ;}
	.st2{fill:#FFFFFF;}
</style>
<g id="Layer_1">
	<rect x="42" y="42" class="st0" width="60" height="60"/>
	<rect x="47" y="104" class="st0" width="50" height="40"/>
	<rect x="47" class="st1" width="50" height="40"/>
	<g>
		<polygon class="st2" points="49,61 49,83 68,72 		"/>
	</g>
	<g>
		<rect x="75" y="62" class="st2" width="8" height="20"/>
		<rect x="87" y="62" class="st2" width="8" height="20"/>
	</g>
	<g>
		<rect x="62" y="112.4" class="st2" width="20" height="20"/>
	</g>
	<rect x="104" y="47" class="st0" width="40" height="50"/>
	<rect y="47" class="st0" width="40" height="50"/>
	<g>
		<polygon class="st2" points="12.9,71.7 12.9,61.4 8.6,61.4 8.6,82.6 12.9,82.6 12.9,72.3 31.4,83 31.4,61 		"/>
	</g>
	<g>
		<polygon class="st2" points="131.1,71.7 131.1,61.4 135.4,61.4 135.4,82.6 131.1,82.6 131.1,72.3 112.6,83 112.6,61 		"/>
	</g>
	<path class="st2" d="M132,27.5v-3.2l-3.9-1.3l-0.9-2.2l1.8-3.7l-2.3-2.3l-3.6,1.8l-2.2-0.9l-1.4-3.8h-3.2l-1.3,3.9l-2.2,0.9
		l-3.7-1.8l-2.3,2.3l1.8,3.6l-0.9,2.2l-3.9,1.4v3.2l3.9,1.3l0.9,2.2l-1.8,3.7l2.3,2.3l3.6-1.8l2.2,0.9l1.4,3.8h3.2l1.3-3.9l2.2-0.9
		l3.7,1.8l2.3-2.3l-1.8-3.6l0.9-2.2L132,27.5z M122.3,30.3c-1.2,1.2-2.6,1.8-4.3,1.8c-1.7,0-3.1-0.6-4.3-1.8
		c-1.2-1.2-1.8-2.6-1.8-4.3c0-1.7,0.6-3.1,1.8-4.3c1.2-1.2,2.6-1.8,4.3-1.8c1.7,0,3.1,0.6,4.3,1.8c1.2,1.2,1.8,2.6,1.8,4.3
		C124,27.7,123.4,29.1,122.3,30.3z"/>
	<g>
		<path class="st2" d="M121.4,110.8h-7.2c-2,0-3.7,0.7-5.1,2.1c-1.4,1.4-2.1,3.1-2.1,5.1s0.7,3.7,2.1,5.1l1.5-1.5
			c-1-1-1.5-2.2-1.5-3.6s0.5-2.6,1.5-3.6c1-1,2.2-1.5,3.6-1.5h7.2v3.3l4.3-4.3l-4.3-4.3V110.8z"/>
		<path class="st2" d="M114.6,125.2h7.2c2,0,3.7-0.7,5.1-2.1c1.4-1.4,2.1-3.1,2.1-5.1s-0.7-3.7-2.1-5.1l-1.5,1.5
			c1,1,1.5,2.2,1.5,3.6s-0.5,2.6-1.5,3.6c-1,1-2.2,1.5-3.6,1.5h-7.2v-3.3l-4.3,4.3l4.3,4.3V125.2z"/>
	</g>
	<g>
		<path class="st2" d="M24.9,114.2c-0.3-0.4-0.6-0.9-1-1.3c-1.4-1.4-3.1-2.1-5.1-2.1h-3.9v2.2h3.9c1.4,0,2.6,0.5,3.6,1.5
			c1,1,1.5,2.2,1.5,3.6s-0.5,2.6-1.5,3.6c-1,1-2.2,1.5-3.6,1.5h-3.9v2.2h3.9c2,0,3.7-0.7,5.1-2.1c0.4-0.4,0.7-0.8,1-1.3
			c0.3,0.4,0.6,0.9,1,1.3c1.4,1.4,3.1,2.1,5.1,2.1h1.7v3.3l4.3-4.3l-4.3-4.3v3.3h-1.7c-1.4,0-2.6-0.5-3.6-1.5c-1-1-1.5-2.2-1.5-3.6
			s0.5-2.6,1.5-3.6c1-1,2.2-1.5,3.6-1.5h1.7v3.3l4.3-4.3l-4.3-4.3v3.3h-1.7c-2,0-3.7,0.7-5.1,2.1C25.5,113.3,25.2,113.7,24.9,114.2
			L24.9,114.2z"/>
	</g>
	<g>
		<path class="st2" d="M32.9,18.6c1.9,1.9,2.9,4.2,2.9,6.9c0,2.7-1,5-2.9,6.9c-1.9,1.9-4.2,2.9-6.9,2.9c-2.7,0-5-1-6.9-2.9
			c-1.9-1.9-2.9-4.2-2.9-6.9c0-2.7,1-5,2.9-6.9L17.5,17c-2.3,2.3-3.5,5.2-3.5,8.5s1.2,6.1,3.5,8.5s5.2,3.5,8.5,3.5
			c3.3,0,6.1-1.2,8.5-3.5s3.5-5.2,3.5-8.5s-1.2-6.1-3.5-8.5L32.9,18.6z"/>
		<polygon class="st2" points="27.5,22.5 27.5,10.5 24.5,10.5 24.5,22.5 20.8,22.5 26,31.5 31.2,22.5 		"/>
	</g>
	<g>
		<polygon class="st2" points="72,27 83.3,15.7 80.7,13 72,21.7 63.3,13 60.7,15.7 		"/>
	</g>
</g>
<g id="Layer_2">
</g>
</svg>
