<?xml version="1.0" encoding="utf-8"?>
<!-- Generator: Adobe Illustrator 19.2.1, SVG Export Plug-In . SVG Version: 6.00 Build 0)  -->
<svg version="1.1" id="Layer_1" xmlns="http://www.w3.org/2000/svg" xmlns:xlink="http://www.w3.org/1999/xlink" x="0px" y="0px"
	 viewBox="0 0 142 142" style="enable-background:new 0 0 142 142;" xml:space="preserve">
<style type="text/css">
	.st0{opacity:0.7;fill:#34495E;enable-background:new    ;}
	.st1{fill:#FFFFFF;}
</style>
<rect x="46" y="102" class="st0" width="50" height="40"/>
<rect x="46" class="st0" width="50" height="40"/>
<rect x="41" y="41" class="st0" width="60" height="60"/>
<polyline class="st1" points="77.7,59.5 70.5,66.2 63.3,66.2 63.3,75.8 70.5,75.8 77.7,82.5 "/>
<g>
	<rect x="64" y="120.6" class="st1" width="14" height="2.8"/>
</g>
<g>
	<polygon class="st1" points="72.4,21.4 78,21.4 78,18.6 72.4,18.6 72.4,13 69.6,13 69.6,18.6 64,18.6 64,21.4 69.6,21.4 69.6,27 
		72.4,27 	"/>
</g>
<rect y="46" class="st0" width="40" height="50"/>
<rect x="102" y="46" class="st0" width="40" height="50"/>
<g>
	<polygon class="st1" points="123.4,72.4 129,72.4 129,69.6 123.4,69.6 123.4,64 120.6,64 120.6,69.6 115,69.6 115,72.4 120.6,72.4 
		120.6,78 123.4,78 	"/>
</g>
<g>
	<rect x="13" y="69.6" class="st1" width="14" height="2.8"/>
</g>
</svg>
