<?xml version="1.0" encoding="utf-8"?>
<!-- Generator: Adobe Illustrator 19.2.1, SVG Export Plug-In . SVG Version: 6.00 Build 0)  -->
<svg version="1.1" id="Layer_1" xmlns="http://www.w3.org/2000/svg" xmlns:xlink="http://www.w3.org/1999/xlink" x="0px" y="0px"
	 viewBox="0 0 107.3 138" style="enable-background:new 0 0 107.3 138;" xml:space="preserve">
<style type="text/css">
	.st0{opacity:0.7;fill:#1F94D2;enable-background:new    ;}
	.st1{fill:#FFFFFF;}
</style>
<g>
	<g>
		<rect x="30.7" y="92" class="st0" width="46" height="46"/>
		<g>
			<path class="st1" d="M57.2,104c0-0.3,0-0.5-0.3-0.8c-0.3-0.3-0.5-0.3-0.8-0.3c-0.3,0-0.5,0-0.8,0.3l-6.1,6.1h-4.9
				c-0.3,0-0.5,0-0.8,0.3c-0.3,0.3-0.3,0.5-0.3,0.8v6.9c0,0.3,0,0.5,0.3,0.8c0.3,0.3,0.5,0.3,0.8,0.3h4.9l6.1,6.1
				c0.3,0.3,0.5,0.3,0.8,0.3c0.3,0,0.5,0,0.8-0.3c0.3-0.3,0.3-0.5,0.3-0.8V104z"/>
			<path class="st1" d="M61.3,118.3c0.8-0.3,1.5-1,2-1.8c0.5-0.8,0.8-1.5,0.8-2.6s-0.3-1.8-0.8-2.6c-0.5-0.8-1.3-1.3-2-1.8
				c0,0-0.3,0-0.5,0s-0.5,0-0.8,0.3c-0.3,0.3-0.3,0.5-0.3,0.8s0,0.5,0.3,0.8c0.3,0.3,0.3,0.3,0.5,0.5s0.5,0.3,0.5,0.5
				c0.3,0.3,0.3,0.3,0.5,0.8c0.3,0.3,0.3,0.5,0.3,1c0,0.5,0,0.8-0.3,1c-0.3,0.3-0.3,0.5-0.5,0.8c-0.3,0.3-0.5,0.3-0.5,0.5
				c-0.3,0-0.3,0.3-0.5,0.5c-0.3,0.3-0.3,0.5-0.3,0.8c0,0.3,0,0.5,0.3,0.8c0.3,0.3,0.5,0.3,0.8,0.3
				C61.1,118.3,61.3,118.3,61.3,118.3L61.3,118.3z"/>
		</g>
	</g>
	<g>
		<rect x="30.7" class="st0" width="46" height="46"/>
		<g>
			<path class="st1" d="M52.6,13c0-0.3,0-0.5-0.3-0.8C52.1,12,51.9,12,51.6,12c-0.3,0-0.5,0-0.8,0.3l-6.1,6.1h-4.9
				c-0.3,0-0.5,0-0.8,0.3c-0.3,0.3-0.3,0.5-0.3,0.8v6.9c0,0.3,0,0.5,0.3,0.8c0.3,0.3,0.5,0.3,0.8,0.3h4.9l6.1,6.1
				c0.3,0.3,0.5,0.3,0.8,0.3c0.3,0,0.5,0,0.8-0.3c0.3-0.3,0.3-0.5,0.3-0.8V13z"/>
			<path class="st1" d="M56.7,27.3c0.8-0.3,1.5-1,2-1.8c0.5-0.8,0.8-1.5,0.8-2.6c0-1-0.3-1.8-0.8-2.6c-0.5-0.8-1.3-1.3-2-1.8
				c0,0-0.3,0-0.5,0s-0.5,0-0.8,0.3c-0.3,0.3-0.3,0.5-0.3,0.8c0,0.3,0,0.5,0.3,0.8c0.3,0.3,0.3,0.3,0.5,0.5s0.5,0.3,0.5,0.5
				c0.3,0.3,0.3,0.3,0.5,0.8c0.3,0.3,0.3,0.5,0.3,1c0,0.5,0,0.8-0.3,1c-0.3,0.3-0.3,0.5-0.5,0.8c-0.3,0.3-0.5,0.3-0.5,0.5
				c-0.3,0-0.3,0.3-0.5,0.5c-0.3,0.3-0.3,0.5-0.3,0.8c0,0.3,0,0.5,0.3,0.8c0.3,0.3,0.5,0.3,0.8,0.3C56.5,27.3,56.7,27.3,56.7,27.3
				L56.7,27.3z"/>
			<path class="st1" d="M58.8,31.7c1.8-0.8,3.1-1.8,4.1-3.3c1-1.5,1.5-3.3,1.5-5.1s-0.5-3.6-1.5-5.1s-2.3-2.8-4.1-3.3
				c-0.3,0-0.3,0-0.5,0c-0.3,0-0.5,0-0.8,0.3c-0.3,0.3-0.3,0.5-0.3,0.8c0,0.5,0.3,0.8,0.8,1c0.8,0.3,1,0.5,1.3,0.8
				c1,0.8,1.5,1.5,2,2.6c0.5,1,0.8,2,0.8,3.1c0,1-0.3,2.3-0.8,3.1c-0.5,1-1.3,1.8-2,2.6c-0.3,0.3-0.8,0.5-1.3,0.8
				c-0.5,0.3-0.8,0.5-0.8,1c0,0.3,0,0.5,0.3,0.8c0.3,0.3,0.5,0.3,0.8,0.3C58.3,31.7,58.5,31.7,58.8,31.7L58.8,31.7z"/>
			<path class="st1" d="M60.6,35.8c2.6-1,4.6-2.8,6.1-5.1c1.5-2.3,2.3-4.9,2.3-7.7s-0.8-5.4-2.3-7.7c-1.5-2.3-3.6-4.1-6.1-5.1
				c-0.3,0-0.3,0-0.5,0c-0.3,0-0.5,0-0.8,0.3C59,10.7,59,11,59,11.2c0,0.5,0.3,0.8,0.8,1c0,0,0.3,0,0.5,0.3c0.3,0,0.3,0.3,0.5,0.3
				c0.5,0.3,1,0.5,1.5,1c1.5,1,2.6,2.6,3.6,4.1c0.8,1.5,1.3,3.3,1.3,5.4c0,1.8-0.5,3.6-1.3,5.4c-0.8,1.5-2,3.1-3.6,4.1
				c-0.5,0.3-1,0.5-1.5,1c0,0-0.3,0-0.5,0.3c-0.3,0-0.3,0.3-0.5,0.3c-0.5,0.3-0.8,0.8-0.8,1s0,0.5,0.3,0.8c0.3,0.3,0.5,0.3,0.8,0.3
				C60.3,36,60.3,36,60.6,35.8L60.6,35.8z"/>
		</g>
	</g>
	<g>
		<rect y="48.6" class="st0" width="107.3" height="40.9"/>
		<g>
			<path class="st1" d="M53.7,59.5c0-0.3,0-0.5-0.3-0.8c-0.3-0.3-0.5-0.3-0.8-0.3c-0.3,0-0.5,0-0.8,0.3l-6.1,6.1h-4.9
				c-0.3,0-0.5,0-0.8,0.3c-0.3,0.3-0.3,0.5-0.3,0.8v6.9c0,0.3,0,0.5,0.3,0.8c0.3,0.3,0.5,0.3,0.8,0.3h4.9l6.1,6.1
				c0.3,0.3,0.5,0.3,0.8,0.3c0.3,0,0.5,0,0.8-0.3c0.3-0.3,0.3-0.5,0.3-0.8V59.5z"/>
		</g>
		<g>
			<path class="st1" d="M69.8,76.7c0-0.3,0-0.5-0.3-0.8c-0.3-0.3-0.5-0.3-0.8-0.3h-4.6c-0.3,0-0.5,0-0.8,0.3
				c-0.3,0.3-0.3,0.5-0.3,0.8v4.1c0,0.3,0,0.5,0.3,0.8c0.3,0.3,0.5,0.3,0.8,0.3h4.6c0.3,0,0.5,0,0.8-0.3c0.3-0.3,0.3-0.5,0.3-0.8
				V76.7z"/>
			<path class="st1" d="M70.3,57.5c0-0.3,0-0.5-0.3-0.8c-0.3-0.3-0.5-0.3-0.8-0.3h-5.9c-0.3,0-0.5,0-0.8,0.3
				c-0.3,0.3-0.3,0.5-0.3,0.8l0.5,14.1c0,0.3,0.3,0.5,0.3,0.8c0.3,0.3,0.5,0.3,0.8,0.3h4.6c0.3,0,0.5,0,0.8-0.3
				c0.3-0.3,0.3-0.5,0.3-0.8L70.3,57.5z"/>
		</g>
	</g>
</g>
</svg>
