<?xml version="1.0" encoding="utf-8"?>
<!-- Generator: Adobe Illustrator 19.2.1, SVG Export Plug-In . SVG Version: 6.00 Build 0)  -->
<svg version="1.1" id="Layer_1" xmlns="http://www.w3.org/2000/svg" xmlns:xlink="http://www.w3.org/1999/xlink" x="0px" y="0px"
	 viewBox="0 0 107.3 138" style="enable-background:new 0 0 107.3 138;" xml:space="preserve">
<style type="text/css">
	.st0{opacity:0.7;fill:#1F94D2;enable-background:new    ;}
	.st1{fill:#FFFFFF;}
	.st2{opacity:0.5;fill:#364A5E;enable-background:new    ;}
</style>
<g>
	<g>
		<rect y="48.6" class="st0" width="107.3" height="40.9"/>
		<g>
			<path class="st1" d="M45,70.3c0.3,0,0.3-0.3,0.3-0.5c0-0.3,0-0.3-0.3-0.5L26.1,58.8c-0.3,0-0.5,0-0.5,0c-0.3,0-0.3,0.3-0.3,0.5
				v21c0,0.3,0,0.5,0.3,0.5c0.3,0,0.3,0,0.5,0L45,70.3z"/>
		</g>
		<g>
			<path class="st1" d="M83.1,59.3c0-0.3,0-0.5-0.3-0.5s-0.5-0.3-0.5-0.3h-7.4c-0.3,0-0.5,0-0.5,0.3c0,0.3-0.3,0.5-0.3,0.5v20.2
				c0,0.3,0,0.5,0.3,0.5s0.5,0.3,0.5,0.3h7.4c0.3,0,0.5,0,0.5-0.3s0.3-0.5,0.3-0.5S83.1,59.3,83.1,59.3z"/>
			<path class="st1" d="M70.3,59.3c0-0.3,0-0.5-0.3-0.5c-0.3,0-0.5-0.3-0.5-0.3h-7.4c-0.3,0-0.5,0-0.5,0.3c0,0.3-0.3,0.5-0.3,0.5
				v20.2c0,0.3,0,0.5,0.3,0.5s0.5,0.3,0.5,0.3h7.4c0.3,0,0.5,0,0.5-0.3s0.3-0.5,0.3-0.5S70.3,59.3,70.3,59.3z"/>
		</g>
	</g>
	<g>
		<rect x="31.2" y="92" class="st0" width="46" height="46"/>
		<g>
			<path class="st1" d="M65.2,105c0-0.3,0-0.5-0.3-0.5s-0.5-0.3-0.5-0.3H44.2c-0.3,0-0.5,0-0.5,0.3c0,0.3-0.3,0.5-0.3,0.5v20.2
				c0,0.3,0,0.5,0.3,0.5s0.5,0.3,0.5,0.3h20.2c0.3,0,0.5,0,0.5-0.3s0.3-0.5,0.3-0.5V105z"/>
		</g>
	</g>
	<g>
		<rect x="31.2" class="st2" width="46" height="46"/>
		<g>
			<path class="st1" d="M38.8,28.5v-11h1.1c0.1,0,0.2,0,0.3,0c0.1,0,0.1,0.1,0.2,0.2l3.8,6.8c0.1,0.1,0.1,0.3,0.2,0.4
				c0.1,0.1,0.1,0.3,0.2,0.4c0-0.1,0.1-0.3,0.2-0.4c0.1-0.1,0.1-0.3,0.2-0.4l3.7-6.8c0.1-0.1,0.1-0.2,0.2-0.2c0.1,0,0.2,0,0.3,0h1.1
				v11H49v-8.1c0-0.1,0-0.2,0-0.3c0-0.1,0-0.2,0-0.4l-3.8,6.9c-0.1,0.2-0.3,0.3-0.5,0.3h-0.2c-0.2,0-0.4-0.1-0.5-0.3l-3.8-6.9
				c0,0.1,0,0.3,0,0.4c0,0.1,0,0.2,0,0.4v8.1H38.8z"/>
			<path class="st1" d="M53.1,28.5v-11h3.2c0.7,0,1.3,0.1,1.8,0.2c0.5,0.2,0.9,0.4,1.3,0.7c0.3,0.3,0.6,0.7,0.8,1.1
				c0.2,0.4,0.3,0.9,0.3,1.4c0,0.5-0.1,1-0.3,1.4c-0.2,0.4-0.4,0.8-0.8,1.1c-0.3,0.3-0.8,0.5-1.3,0.7c-0.5,0.2-1.1,0.3-1.8,0.3h-1.8
				v4.1H53.1z M54.6,23.2h1.8c0.4,0,0.8-0.1,1.1-0.2s0.6-0.3,0.8-0.5c0.2-0.2,0.4-0.4,0.5-0.7s0.2-0.6,0.2-0.9
				c0-0.7-0.2-1.2-0.6-1.6c-0.4-0.4-1.1-0.6-2-0.6h-1.8V23.2z"/>
			<path class="st1" d="M62.3,28.5v-11h4.1c0.8,0,1.5,0.1,2.2,0.4s1.2,0.6,1.7,1.1c0.5,0.5,0.8,1.1,1.1,1.7c0.3,0.7,0.4,1.4,0.4,2.2
				c0,0.8-0.1,1.6-0.4,2.2c-0.3,0.7-0.6,1.3-1.1,1.7c-0.5,0.5-1,0.9-1.7,1.1c-0.7,0.3-1.4,0.4-2.2,0.4H62.3z M63.8,27.3h2.6
				c0.6,0,1.1-0.1,1.6-0.3c0.5-0.2,0.9-0.5,1.2-0.8s0.6-0.8,0.8-1.3c0.2-0.5,0.3-1.1,0.3-1.8s-0.1-1.3-0.3-1.8
				c-0.2-0.5-0.4-1-0.8-1.4c-0.3-0.4-0.7-0.7-1.2-0.8c-0.5-0.2-1-0.3-1.6-0.3h-2.6V27.3z"/>
		</g>
	</g>
</g>
</svg>
