<?xml version="1.0" encoding="utf-8"?>
<!-- Generator: Adobe Illustrator 19.2.1, SVG Export Plug-In . SVG Version: 6.00 Build 0)  -->
<svg version="1.1" xmlns="http://www.w3.org/2000/svg" xmlns:xlink="http://www.w3.org/1999/xlink" x="0px" y="0px"
	 viewBox="0 0 144 144" style="enable-background:new 0 0 144 144;" xml:space="preserve">
<style type="text/css">
	.st0{opacity:0.7;fill:#1F94D2;enable-background:new    ;}
	.st1{opacity:0.7;fill:#34495E;enable-background:new    ;}
	.st2{fill:#FFFFFF;}
</style>
<g id="Layer_1">
	<rect x="42" y="42" class="st0" width="60" height="60"/>
	<rect x="42" y="104" class="st0" width="60" height="40"/>
	<rect x="42" class="st1" width="60" height="40"/>
	<g>
		<polygon class="st2" points="49,61 49,83 68,72 		"/>
	</g>
	<g>
		<rect x="75" y="62" class="st2" width="8" height="20"/>
		<rect x="87" y="62" class="st2" width="8" height="20"/>
	</g>
	<g>
		<rect x="62" y="112.4" class="st2" width="20" height="20"/>
	</g>
	<rect x="104" y="42" class="st0" width="40" height="60"/>
	<rect y="42" class="st0" width="40" height="60"/>
	<g>
		<polygon class="st2" points="12.9,71.7 12.9,61.4 8.6,61.4 8.6,82.6 12.9,82.6 12.9,72.3 31.4,83 31.4,61 		"/>
	</g>
	<g>
		<polygon class="st2" points="131.1,71.7 131.1,61.4 135.4,61.4 135.4,82.6 131.1,82.6 131.1,72.3 112.6,83 112.6,61 		"/>
	</g>
	<path class="st2" d="M137,22.5v-3.2l-3.9-1.3l-0.9-2.2l1.8-3.7l-2.3-2.3l-3.6,1.8l-2.2-0.9L124.5,7h-3.2l-1.3,3.9l-2.2,0.9
		l-3.7-1.8l-2.3,2.3l1.8,3.6l-0.9,2.2l-3.9,1.4v3.2l3.9,1.3l0.9,2.2l-1.8,3.7l2.3,2.3l3.6-1.8l2.2,0.9l1.4,3.8h3.2l1.3-3.9l2.2-0.9
		l3.7,1.8l2.3-2.3l-1.8-3.6l0.9-2.2L137,22.5z M127.3,25.3c-1.2,1.2-2.6,1.8-4.3,1.8c-1.7,0-3.1-0.6-4.3-1.8
		c-1.2-1.2-1.8-2.6-1.8-4.3c0-1.7,0.6-3.1,1.8-4.3c1.2-1.2,2.6-1.8,4.3-1.8c1.7,0,3.1,0.6,4.3,1.8c1.2,1.2,1.8,2.6,1.8,4.3
		C129,22.7,128.4,24.1,127.3,25.3z"/>
	<g>
		<path class="st2" d="M24.4,13.8h-7.2c-2,0-3.7,0.7-5.1,2.1C10.6,17.3,9.9,19,9.9,21s0.7,3.7,2.1,5.1l1.5-1.5c-1-1-1.5-2.2-1.5-3.6
			s0.5-2.6,1.5-3.6c1-1,2.2-1.5,3.6-1.5h7.2v3.3l4.3-4.3l-4.3-4.3V13.8z"/>
		<path class="st2" d="M17.6,28.2h7.2c2,0,3.7-0.7,5.1-2.1c1.4-1.4,2.1-3.1,2.1-5.1s-0.7-3.7-2.1-5.1l-1.5,1.5c1,1,1.5,2.2,1.5,3.6
			s-0.5,2.6-1.5,3.6c-1,1-2.2,1.5-3.6,1.5h-7.2v-3.3l-4.3,4.3l4.3,4.3V28.2z"/>
	</g>
	<g>
		<path class="st2" d="M19.9,119.2c-0.3-0.4-0.6-0.9-1-1.3c-1.4-1.4-3.1-2.1-5.1-2.1H9.9v2.2h3.9c1.4,0,2.6,0.5,3.6,1.5
			c1,1,1.5,2.2,1.5,3.6s-0.5,2.6-1.5,3.6c-1,1-2.2,1.5-3.6,1.5H9.9v2.2h3.9c2,0,3.7-0.7,5.1-2.1c0.4-0.4,0.7-0.8,1-1.3
			c0.3,0.4,0.6,0.9,1,1.3c1.4,1.4,3.1,2.1,5.1,2.1h1.7v3.3l4.3-4.3l-4.3-4.3v3.3h-1.7c-1.4,0-2.6-0.5-3.6-1.5c-1-1-1.5-2.2-1.5-3.6
			s0.5-2.6,1.5-3.6c1-1,2.2-1.5,3.6-1.5h1.7v3.3l4.3-4.3l-4.3-4.3v3.3h-1.7c-2,0-3.7,0.7-5.1,2.1C20.5,118.3,20.2,118.7,19.9,119.2
			L19.9,119.2z"/>
	</g>
	<g>
		<polygon class="st2" points="124.1,130.9 121.9,130.9 121.9,117.3 119.8,117.3 119.8,115.1 124.1,115.1 		"/>
		<polygon class="st2" points="112,118.7 112,127.3 116.3,123 		"/>
		<polygon class="st2" points="134,118.7 129.7,123 134,127.3 		"/>
	</g>
	<g>
		<path class="st2" d="M58.8,24.2v-9h0.9c0.1,0,0.2,0,0.3,0c0.1,0,0.1,0.1,0.2,0.2l3.1,5.5c0.1,0.1,0.1,0.2,0.2,0.3s0.1,0.2,0.1,0.3
			c0-0.1,0.1-0.2,0.1-0.3c0-0.1,0.1-0.2,0.2-0.3l3-5.5c0.1-0.1,0.1-0.2,0.2-0.2c0.1,0,0.1,0,0.3,0h0.9v9h-1.1v-6.6
			c0-0.1,0-0.2,0-0.3s0-0.2,0-0.3L64,22.7c-0.1,0.2-0.3,0.3-0.4,0.3h-0.2c-0.2,0-0.3-0.1-0.4-0.3L59.8,17c0,0.1,0,0.2,0,0.3
			c0,0.1,0,0.2,0,0.3v6.6H58.8z"/>
		<path class="st2" d="M70.4,24.2v-9h2.6c0.6,0,1.1,0.1,1.5,0.2c0.4,0.1,0.8,0.3,1,0.6c0.3,0.2,0.5,0.5,0.6,0.9
			c0.1,0.3,0.2,0.7,0.2,1.1c0,0.4-0.1,0.8-0.2,1.1c-0.1,0.3-0.4,0.6-0.6,0.9s-0.6,0.4-1,0.6s-0.9,0.2-1.4,0.2h-1.4v3.4H70.4z
			 M71.6,19.9h1.4c0.3,0,0.7,0,0.9-0.1c0.3-0.1,0.5-0.2,0.7-0.4c0.2-0.2,0.3-0.4,0.4-0.6c0.1-0.2,0.1-0.5,0.1-0.8
			c0-0.6-0.2-1-0.5-1.3c-0.4-0.3-0.9-0.5-1.6-0.5h-1.4V19.9z"/>
		<path class="st2" d="M77.9,24.2v-9h3.3c0.7,0,1.3,0.1,1.8,0.3s1,0.5,1.4,0.9s0.7,0.9,0.9,1.4c0.2,0.5,0.3,1.2,0.3,1.8
			c0,0.7-0.1,1.3-0.3,1.8c-0.2,0.5-0.5,1-0.9,1.4s-0.9,0.7-1.4,0.9s-1.1,0.3-1.8,0.3H77.9z M79.2,23.2h2.1c0.5,0,0.9-0.1,1.3-0.2
			c0.4-0.2,0.7-0.4,1-0.7c0.3-0.3,0.5-0.7,0.6-1.1c0.2-0.4,0.2-0.9,0.2-1.5s-0.1-1-0.2-1.5c-0.2-0.4-0.4-0.8-0.6-1.1
			c-0.3-0.3-0.6-0.5-1-0.7c-0.4-0.2-0.8-0.2-1.3-0.2h-2.1V23.2z"/>
	</g>
</g>
<g id="Layer_2">
</g>
</svg>
