<?xml version="1.0" encoding="utf-8"?>
<!-- Generator: Adobe Illustrator 19.2.1, SVG Export Plug-In . SVG Version: 6.00 Build 0)  -->
<svg version="1.1" id="Layer_1" xmlns="http://www.w3.org/2000/svg" xmlns:xlink="http://www.w3.org/1999/xlink" x="0px" y="0px"
	 viewBox="0 0 161 147" style="enable-background:new 0 0 161 147;" xml:space="preserve">
<style type="text/css">
	.st0{opacity:0.7;fill:#1F94D2;enable-background:new    ;}
	.st1{opacity:0.7;fill:#34495E;enable-background:new    ;}
	.st2{fill:#FFFFFF;}
</style>
<rect x="47" y="47" class="st0" width="67" height="53"/>
<rect x="47.1" y="102" class="st0" width="67" height="45"/>
<rect x="47" class="st1" width="67" height="45"/>
<g>
	<path class="st2" d="M65.4,27.9V17.1h1.1c0.1,0,0.2,0,0.3,0s0.1,0.1,0.2,0.2l3.7,6.7c0.1,0.1,0.1,0.3,0.2,0.4
		c0.1,0.1,0.1,0.3,0.2,0.4c0-0.1,0.1-0.3,0.2-0.4c0.1-0.1,0.1-0.3,0.2-0.4l3.6-6.7c0.1-0.1,0.1-0.2,0.2-0.2c0.1,0,0.2,0,0.3,0h1.1
		v10.8h-1.3V20c0-0.1,0-0.2,0-0.3c0-0.1,0-0.2,0-0.4L71.7,26c-0.1,0.2-0.3,0.3-0.5,0.3H71c-0.2,0-0.4-0.1-0.5-0.3l-3.7-6.8
		c0,0.1,0,0.3,0,0.4s0,0.2,0,0.4V28L65.4,27.9L65.4,27.9z"/>
	<path class="st2" d="M79.4,27.9V17.1h3.1c0.7,0,1.3,0.1,1.8,0.2c0.5,0.2,0.9,0.4,1.3,0.7c0.3,0.3,0.6,0.7,0.8,1.1s0.3,0.9,0.3,1.4
		s-0.1,1-0.3,1.4s-0.4,0.8-0.8,1.1c-0.3,0.3-0.8,0.5-1.3,0.7c-0.5,0.2-1.1,0.3-1.8,0.3h-1.8v4C80.8,27.9,79.4,27.9,79.4,27.9z
		 M80.9,22.7h1.8c0.4,0,0.8-0.1,1.1-0.2s0.6-0.3,0.8-0.5c0.2-0.2,0.4-0.4,0.5-0.7s0.2-0.6,0.2-0.9c0-0.7-0.2-1.2-0.6-1.6
		s-1.1-0.6-2-0.6h-1.8V22.7z"/>
	<path class="st2" d="M88.4,27.9V17.1h4c0.8,0,1.5,0.1,2.2,0.4c0.7,0.3,1.2,0.6,1.7,1.1c0.5,0.5,0.8,1.1,1.1,1.7
		c0.3,0.7,0.4,1.4,0.4,2.2c0,0.8-0.1,1.6-0.4,2.2c-0.3,0.7-0.6,1.3-1.1,1.7c-0.5,0.5-1,0.9-1.7,1.1c-0.7,0.3-1.4,0.4-2.2,0.4h-4
		V27.9z M89.9,26.7h2.5c0.6,0,1.1-0.1,1.6-0.3c0.5-0.2,0.9-0.5,1.2-0.8c0.3-0.3,0.6-0.8,0.8-1.3c0.2-0.5,0.3-1.1,0.3-1.8
		s-0.1-1.3-0.3-1.8c-0.2-0.5-0.4-1-0.8-1.4c-0.3-0.4-0.7-0.7-1.2-0.8c-0.5-0.2-1-0.3-1.6-0.3h-2.5C89.9,18.4,89.9,26.7,89.9,26.7z"
		/>
</g>
<g>
	<polygon class="st2" points="55.8,61.4 55.8,85.6 76.8,73.5 	"/>
</g>
<g>
	<rect x="82.7" y="62.5" class="st2" width="8.8" height="22"/>
	<rect x="95.9" y="62.5" class="st2" width="8.8" height="22"/>
</g>
<g>
	<rect x="69.5" y="113" class="st2" width="22" height="22"/>
</g>
<rect x="116" y="47.1" class="st0" width="45" height="53"/>
<rect y="47.1" class="st0" width="45" height="53"/>
<g>
	<polygon class="st2" points="14.7,73.1 14.7,61.8 10,61.8 10,85.2 14.7,85.2 14.7,73.9 35,85.6 35,61.4 	"/>
</g>
<g>
	<polygon class="st2" points="146.3,73.1 146.3,61.8 151,61.8 151,85.2 146.3,85.2 146.3,73.9 126,85.6 126,61.4 	"/>
</g>
</svg>
