<?xml version="1.0" encoding="utf-8"?>
<!-- Generator: Adobe Illustrator 19.2.1, SVG Export Plug-In . SVG Version: 6.00 Build 0)  -->
<svg version="1.1" xmlns="http://www.w3.org/2000/svg" xmlns:xlink="http://www.w3.org/1999/xlink" x="0px" y="0px"
	 viewBox="0 0 151.1 138" style="enable-background:new 0 0 151.1 138;" xml:space="preserve">
<style type="text/css">
	.st0{opacity:0.7;fill:#1F94D2;enable-background:new    ;}
	.st1{opacity:0.7;fill:#34495E;enable-background:new    ;}
	.st2{fill:#FFFFFF;}
</style>
<g id="Layer_1">
	<rect x="44" y="44" class="st0" width="63" height="50"/>
	<rect x="44" y="96" class="st0" width="63" height="42"/>
	<rect x="44" class="st1" width="63" height="42"/>
	<g>
		<path class="st2" d="M62.3,25.5v-8.9h0.9c0.1,0,0.2,0,0.2,0c0.1,0,0.1,0.1,0.2,0.2l3.1,5.5c0.1,0.1,0.1,0.2,0.2,0.3
			c0.1,0.1,0.1,0.2,0.2,0.3c0-0.1,0.1-0.2,0.2-0.3c0.1-0.1,0.1-0.2,0.2-0.3l3-5.5c0.1-0.1,0.1-0.2,0.2-0.2c0.1,0,0.2,0,0.2,0h0.9
			v8.9h-1V19c0-0.1,0-0.2,0-0.2c0-0.1,0-0.2,0-0.3L67.4,24c-0.1,0.2-0.2,0.2-0.4,0.2h-0.2c-0.2,0-0.3-0.1-0.4-0.2l-3.1-5.6
			c0,0.1,0,0.2,0,0.3s0,0.2,0,0.3v6.5L62.3,25.5L62.3,25.5z"/>
		<path class="st2" d="M73.8,25.5v-8.9h2.6c0.6,0,1,0.1,1.4,0.2c0.4,0.2,0.7,0.3,1,0.6c0.2,0.2,0.5,0.6,0.6,0.9
			c0.2,0.3,0.2,0.7,0.2,1.1c0,0.4-0.1,0.8-0.2,1.1c-0.2,0.3-0.3,0.6-0.6,0.9c-0.2,0.2-0.6,0.4-1,0.6c-0.4,0.2-0.9,0.2-1.4,0.2h-1.4
			v3.3C74.9,25.5,73.8,25.5,73.8,25.5z M75,21.2h1.4c0.3,0,0.6-0.1,0.9-0.2c0.2-0.1,0.5-0.2,0.6-0.4c0.2-0.2,0.3-0.3,0.4-0.6
			s0.2-0.5,0.2-0.7c0-0.6-0.2-1-0.5-1.3c-0.3-0.3-0.9-0.5-1.6-0.5H75V21.2z"/>
		<path class="st2" d="M81.2,25.5v-8.9h3.3c0.6,0,1.2,0.1,1.8,0.3c0.6,0.2,1,0.5,1.4,0.9c0.4,0.4,0.6,0.9,0.9,1.4
			c0.2,0.6,0.3,1.1,0.3,1.8c0,0.6-0.1,1.3-0.3,1.8c-0.2,0.6-0.5,1-0.9,1.4c-0.4,0.4-0.8,0.7-1.4,0.9c-0.6,0.2-1.1,0.3-1.8,0.3h-3.3
			V25.5z M82.4,24.5h2.1c0.5,0,0.9-0.1,1.3-0.2c0.4-0.2,0.7-0.4,1-0.6c0.2-0.2,0.5-0.6,0.6-1c0.2-0.4,0.2-0.9,0.2-1.4
			s-0.1-1-0.2-1.4c-0.2-0.4-0.3-0.8-0.6-1.1c-0.2-0.3-0.6-0.6-1-0.6c-0.4-0.2-0.8-0.2-1.3-0.2h-2.1C82.4,17.7,82.4,24.5,82.4,24.5z"
			/>
	</g>
	<g>
		<polygon class="st2" points="52.5,58 52.5,80 71.5,69 		"/>
	</g>
	<g>
		<rect x="78" y="59" class="st2" width="8" height="20"/>
		<rect x="90" y="59" class="st2" width="8" height="20"/>
	</g>
	<g>
		<rect x="65.6" y="106.4" class="st2" width="20" height="20"/>
	</g>
	<rect x="109" y="44" class="st0" width="42" height="50"/>
	<rect y="44" class="st0" width="42" height="50"/>
	<g>
		<polygon class="st2" points="13.9,68.7 13.9,58.4 9.6,58.4 9.6,79.6 13.9,79.6 13.9,69.3 32.4,80 32.4,58 		"/>
	</g>
	<g>
		<polygon class="st2" points="137.1,68.7 137.1,58.4 141.4,58.4 141.4,79.6 137.1,79.6 137.1,69.3 118.6,80 118.6,58 		"/>
	</g>
	<path class="st2" d="M144,22.5v-3.2l-3.9-1.3l-0.9-2.2l1.8-3.7l-2.3-2.3l-3.6,1.8l-2.2-0.9L131.5,7h-3.2l-1.3,3.9l-2.2,0.9
		l-3.7-1.8l-2.3,2.3l1.8,3.6l-0.9,2.2l-3.9,1.4v3.2l3.9,1.3l0.9,2.2l-1.8,3.7l2.3,2.3l3.6-1.8l2.2,0.9l1.4,3.8h3.2l1.3-3.9l2.2-0.9
		l3.7,1.8l2.3-2.3l-1.8-3.6l0.9-2.2L144,22.5z M134.3,25.3c-1.2,1.2-2.6,1.8-4.3,1.8c-1.7,0-3.1-0.6-4.3-1.8
		c-1.2-1.2-1.8-2.6-1.8-4.3c0-1.7,0.6-3.1,1.8-4.3c1.2-1.2,2.6-1.8,4.3-1.8c1.7,0,3.1,0.6,4.3,1.8c1.2,1.2,1.8,2.6,1.8,4.3
		C136,22.7,135.4,24.1,134.3,25.3z"/>
	<g>
		<path class="st2" d="M24.4,13.8h-7.2c-2,0-3.7,0.7-5.1,2.1C10.6,17.3,9.9,19,9.9,21s0.7,3.7,2.1,5.1l1.5-1.5c-1-1-1.5-2.2-1.5-3.6
			s0.5-2.6,1.5-3.6c1-1,2.2-1.5,3.6-1.5h7.2v3.3l4.3-4.3l-4.3-4.3V13.8z"/>
		<path class="st2" d="M17.6,28.2h7.2c2,0,3.7-0.7,5.1-2.1c1.4-1.4,2.1-3.1,2.1-5.1s-0.7-3.7-2.1-5.1l-1.5,1.5c1,1,1.5,2.2,1.5,3.6
			s-0.5,2.6-1.5,3.6c-1,1-2.2,1.5-3.6,1.5h-7.2v-3.3l-4.3,4.3l4.3,4.3V28.2z"/>
	</g>
	<g>
		<path class="st2" d="M19.9,113.2c-0.3-0.4-0.6-0.9-1-1.3c-1.4-1.4-3.1-2.1-5.1-2.1H9.9v2.2h3.9c1.4,0,2.6,0.5,3.6,1.5
			c1,1,1.5,2.2,1.5,3.6s-0.5,2.6-1.5,3.6c-1,1-2.2,1.5-3.6,1.5H9.9v2.2h3.9c2,0,3.7-0.7,5.1-2.1c0.4-0.4,0.7-0.8,1-1.3
			c0.3,0.4,0.6,0.9,1,1.3c1.4,1.4,3.1,2.1,5.1,2.1h1.7v3.3l4.3-4.3l-4.3-4.3v3.3h-1.7c-1.4,0-2.6-0.5-3.6-1.5c-1-1-1.5-2.2-1.5-3.6
			s0.5-2.6,1.5-3.6c1-1,2.2-1.5,3.6-1.5h1.7v3.3l4.3-4.3l-4.3-4.3v3.3h-1.7c-2,0-3.7,0.7-5.1,2.1C20.5,112.3,20.2,112.7,19.9,113.2
			L19.9,113.2z"/>
	</g>
	<g>
		<polygon class="st2" points="131.2,126 128.8,126 128.8,110.5 126.3,110.5 126.3,108 131.2,108 		"/>
		<polygon class="st2" points="117.4,112.1 117.4,121.9 122.3,117 		"/>
		<polygon class="st2" points="142.6,112.1 137.7,117 142.6,121.9 		"/>
	</g>
</g>
<g id="Layer_2">
</g>
</svg>
