<?xml version="1.0" encoding="utf-8"?>
<!-- Generator: Adobe Illustrator 19.2.1, SVG Export Plug-In . SVG Version: 6.00 Build 0)  -->
<svg version="1.1" id="Layer_1" xmlns="http://www.w3.org/2000/svg" xmlns:xlink="http://www.w3.org/1999/xlink" x="0px" y="0px"
	 viewBox="0 0 144 144" style="enable-background:new 0 0 144 144;" xml:space="preserve">
<style type="text/css">
	.st0{opacity:0.7;fill:#34495E;enable-background:new    ;}
	.st1{fill:#FFFFFF;}
</style>
<rect x="47" y="104" class="st0" width="50" height="40"/>
<rect x="47" class="st0" width="50" height="40"/>
<rect x="42" y="42" class="st0" width="60" height="60"/>
<polyline class="st1" points="78.7,60.5 71.5,67.2 64.3,67.2 64.3,76.8 71.5,76.8 78.7,83.5 "/>
<g>
	<rect x="65" y="121.6" class="st1" width="14" height="2.8"/>
</g>
<g>
	<polygon class="st1" points="73.4,22.4 79,22.4 79,19.6 73.4,19.6 73.4,14 70.6,14 70.6,19.6 65,19.6 65,22.4 70.6,22.4 70.6,28 
		73.4,28 	"/>
</g>
<rect y="47" class="st0" width="40" height="50"/>
<rect x="104" y="47" class="st0" width="40" height="50"/>
<g>
	<polygon class="st1" points="124.4,73.4 130,73.4 130,70.6 124.4,70.6 124.4,65 121.6,65 121.6,70.6 116,70.6 116,73.4 121.6,73.4 
		121.6,79 124.4,79 	"/>
</g>
<g>
	<rect x="14" y="70.6" class="st1" width="14" height="2.8"/>
</g>
</svg>
