<?xml version="1.0" encoding="utf-8"?>
<!-- Generator: Adobe Illustrator 19.2.1, SVG Export Plug-In . SVG Version: 6.00 Build 0)  -->
<svg version="1.1" id="Layer_1" xmlns="http://www.w3.org/2000/svg" xmlns:xlink="http://www.w3.org/1999/xlink" x="0px" y="0px"
	 viewBox="0 0 460 460" style="enable-background:new 0 0 460 460;" xml:space="preserve">
<style type="text/css">
	.st0{fill:#231F20;}
	.st1{fill:#212529;}
</style>
<rect y="0" class="st0" width="460" height="460"/>
<g>
	<path class="st1" d="M78.5,398c58.9-13.6,92.7-23.7,137-71c-3,39.3-15.6,80.1-44.3,103.7c-19.1,16.1-29.2,14.6-43.3,4
		C113.8,425.2,90.1,407.1,78.5,398z"/>
	<path class="st1" d="M61.4,317c44.3-13.6,86.6-32.7,119.9-66c11.6-11.6,21.2-29.7,33.2-47.3c-35.3,15.1-59.9,26.2-88.1,30.2
		c-44.3,6.5-48.8,8.1-68-33.2c-7.6-15.6-11.6-33.2-18.1-49.4c-9.6-28.2-10.1-31.2,15.6-46.8c73-46.8,152.1-69.5,238.7-62
		c16.1,3,20.1,3,23.2,20.1c8.6,32.2,10.6,65,4.5,100.7c-5,45.3-6.5,52.9,3,117.3c5.4,64.8,1.1,125.5-29.1,179.3h62.1
		c16.8-30.7,29.3-61.4,35.5-89.6c7.1-32.7,8.6-37.8,1.5-67C388,213.6,400.5,97.7,398.1,0H114.8C98,6.1,81.2,12.5,64.4,19.4
		C42.6,28.3,19.9,38.8,0,51.6v195.8c3.8,13.9,8.3,28.3,14.6,44C21.1,311.5,38.2,324.1,61.4,317z"/>
</g>
</svg>
