<?xml version="1.0" encoding="utf-8"?>
<!-- Generator: Adobe Illustrator 19.2.1, SVG Export Plug-In . SVG Version: 6.00 Build 0)  -->
<svg version="1.1" id="Layer_1" xmlns="http://www.w3.org/2000/svg" xmlns:xlink="http://www.w3.org/1999/xlink" x="0px" y="0px"
	 viewBox="0 0 460 460" style="enable-background:new 0 0 460 460;" xml:space="preserve">
<style type="text/css">
	.st0{fill:#231F20;}
	.st1{fill:#212529;}
	.st2{opacity:0.2;fill:#FFFFFF;enable-background:new    ;}
	.st3{opacity:0.4;fill:#FFFFFF;enable-background:new    ;}
	.st4{opacity:0.6;fill:#FFFFFF;enable-background:new    ;}
	.st5{opacity:0.8;fill:#FFFFFF;enable-background:new    ;}
	.st6{fill:#FFFFFF;}
</style>
<rect class="st0" width="460" height="460"/>
<g>
	<path class="st1" d="M78.5,398c58.9-13.6,92.7-23.7,137-71c-3,39.3-15.6,80.1-44.3,103.7c-19.1,16.1-29.2,14.6-43.3,4
		C113.8,425.2,90.1,407.1,78.5,398z"/>
	<path class="st1" d="M61.4,317c44.3-13.6,86.6-32.7,119.9-66c11.6-11.6,21.2-29.7,33.2-47.3c-35.3,15.1-59.9,26.2-88.1,30.2
		c-44.3,6.5-48.8,8.1-68-33.2c-7.6-15.6-11.6-33.2-18.1-49.4c-9.6-28.2-10.1-31.2,15.6-46.8c73-46.8,152.1-69.5,238.7-62
		c16.1,3,20.1,3,23.2,20.1c8.6,32.2,10.6,65,4.5,100.7c-5,45.3-6.5,52.9,3,117.3c5.4,64.8,1.1,125.5-29.1,179.3h62.1
		c16.8-30.7,29.3-61.4,35.5-89.6c7.1-32.7,8.6-37.8,1.5-67C388,213.6,400.5,97.7,398.1,0H114.8C98,6.1,81.2,12.5,64.4,19.4
		C42.6,28.3,19.9,38.8,0,51.6v195.8c3.8,13.9,8.3,28.3,14.6,44C21.1,311.5,38.2,324.1,61.4,317z"/>
</g>
<path class="st2" d="M28.2,236.9v-14.3h0.7c0.2,0,0.3,0,0.3,0.1c0.1,0.1,0.1,0.2,0.1,0.4l0.1,3c0.4-1.2,1-2.1,1.8-2.7
	c0.7-0.7,1.7-1,2.8-1c0.4,0,0.8,0,1.2,0.1s0.7,0.2,1,0.4l-0.2,0.9c0,0.1-0.1,0.2-0.3,0.2c-0.1,0-0.1,0-0.2-0.1
	c-0.1,0-0.2-0.1-0.4-0.1s-0.3-0.1-0.6-0.1c-0.2,0-0.5-0.1-0.8-0.1c-1.1,0-1.9,0.3-2.6,1s-1.2,1.6-1.6,2.9v9.3h-1.3V236.9z"/>
<path class="st3" d="M75.3,231.7v-9.2h1.3v9.2c0,1.3,0.3,2.4,0.9,3.2s1.5,1.2,2.7,1.2c0.9,0,1.7-0.2,2.5-0.7s1.5-1.1,2.1-2v-10.8
	h1.3v14.3h-0.7c-0.3,0-0.4-0.1-0.4-0.4l-0.1-2.1c-0.6,0.8-1.4,1.5-2.2,2c-0.8,0.5-1.8,0.7-2.8,0.7c-0.8,0-1.4-0.1-2-0.4
	c-0.6-0.2-1.1-0.6-1.4-1.1c-0.4-0.5-0.7-1-0.9-1.7C75.4,233.3,75.3,232.6,75.3,231.7z"/>
<path class="st4" d="M127.2,236.9v-14.3h0.7c0.2,0,0.4,0.1,0.4,0.4l0.1,2.1c0.6-0.8,1.4-1.5,2.2-2s1.8-0.8,2.8-0.8
	c0.8,0,1.4,0.1,2,0.4c0.6,0.2,1.1,0.6,1.4,1.1c0.4,0.5,0.7,1,0.9,1.7s0.3,1.4,0.3,2.3v9.2h-1.3v-9.2c0-1.3-0.3-2.4-0.9-3.2
	c-0.6-0.8-1.5-1.1-2.7-1.1c-0.9,0-1.8,0.2-2.5,0.7c-0.8,0.5-1.5,1.1-2.1,2V237L127.2,236.9L127.2,236.9z"/>
<path class="st5" d="M177.7,229.5c0-1,0.1-2,0.4-2.9c0.3-0.9,0.7-1.6,1.2-2.2c0.5-0.6,1.2-1.1,2-1.5s1.7-0.5,2.7-0.5
	c0.8,0,1.5,0.1,2.2,0.4c0.7,0.3,1.2,0.7,1.7,1.2s0.9,1.2,1.1,2s0.4,1.7,0.4,2.7c0,0.2,0,0.4-0.1,0.4c-0.1,0.1-0.2,0.1-0.3,0.1h-10
	v0.3c0,1.1,0.1,2,0.4,2.8c0.2,0.8,0.6,1.5,1,2.1s1,1,1.6,1.2c0.6,0.3,1.3,0.4,2.1,0.4c0.7,0,1.3-0.1,1.8-0.2
	c0.5-0.2,0.9-0.3,1.3-0.5c0.3-0.2,0.6-0.4,0.8-0.5c0.2-0.2,0.4-0.2,0.5-0.2s0.2,0,0.3,0.1l0.4,0.5c-0.2,0.3-0.5,0.6-0.9,0.8
	s-0.8,0.5-1.2,0.6c-0.4,0.2-0.9,0.3-1.4,0.4s-1,0.2-1.5,0.2c-0.9,0-1.8-0.2-2.6-0.5s-1.5-0.8-2-1.5c-0.6-0.7-1-1.5-1.3-2.4
	C177.9,231.8,177.7,230.7,177.7,229.5z M179.1,228.3h9.2c0-0.8-0.1-1.5-0.3-2.1s-0.5-1.1-0.9-1.5s-0.8-0.7-1.3-1
	c-0.5-0.2-1.1-0.3-1.7-0.3c-0.7,0-1.4,0.1-1.9,0.4c-0.6,0.2-1.1,0.6-1.5,1s-0.7,0.9-1,1.6C179.4,226.9,179.2,227.5,179.1,228.3z"/>
<path class="st6" d="M228.7,233.4c0-0.6,0.2-1.2,0.5-1.7s0.9-1,1.6-1.4s1.6-0.7,2.8-0.9c1.1-0.2,2.5-0.4,4.1-0.4v-1.5
	c0-1.3-0.3-2.3-0.8-3.1c-0.6-0.7-1.4-1.1-2.5-1.1c-0.7,0-1.2,0.1-1.7,0.3s-0.9,0.4-1.2,0.6c-0.3,0.2-0.6,0.4-0.8,0.6
	c-0.2,0.2-0.4,0.3-0.5,0.3c-0.2,0-0.3-0.1-0.4-0.3l-0.2-0.4c0.7-0.7,1.5-1.3,2.3-1.7s1.7-0.6,2.7-0.6c0.8,0,1.4,0.1,2,0.4
	c0.6,0.2,1,0.6,1.4,1c0.4,0.5,0.7,1,0.8,1.7c0.2,0.6,0.3,1.4,0.3,2.2v9.4h-0.5c-0.3,0-0.5-0.1-0.5-0.4l-0.2-1.8
	c-0.4,0.4-0.8,0.7-1.1,1s-0.8,0.6-1.2,0.8s-0.9,0.4-1.3,0.5c-0.5,0.1-1,0.2-1.6,0.2c-0.5,0-0.9-0.1-1.4-0.2
	c-0.5-0.1-0.9-0.4-1.2-0.7s-0.6-0.7-0.8-1.2C228.8,234.6,228.7,234.1,228.7,233.4z M230,233.4c0,0.5,0.1,0.9,0.2,1.3
	c0.2,0.4,0.4,0.6,0.6,0.9c0.3,0.2,0.5,0.4,0.9,0.5c0.3,0.1,0.7,0.2,1.1,0.2c0.5,0,1-0.1,1.5-0.2s0.9-0.3,1.3-0.5
	c0.4-0.2,0.7-0.5,1.1-0.8c0.3-0.3,0.7-0.6,1-1V230c-1.3,0-2.5,0.1-3.4,0.3c-1,0.2-1.7,0.4-2.4,0.7c-0.6,0.3-1.1,0.6-1.4,1
	S230,232.9,230,233.4z"/>
<path class="st5" d="M279.1,231.7v-9.2h1.3v9.2c0,1.3,0.3,2.4,0.9,3.2s1.5,1.2,2.7,1.2c0.9,0,1.7-0.2,2.5-0.7s1.5-1.1,2.1-2v-10.8
	h1.3v14.3h-0.7c-0.3,0-0.4-0.1-0.4-0.4l-0.1-2.1c-0.6,0.8-1.4,1.5-2.2,2c-0.8,0.5-1.8,0.7-2.8,0.7c-0.8,0-1.4-0.1-2-0.4
	s-1.1-0.6-1.4-1.1c-0.4-0.5-0.7-1-0.9-1.7C279.2,233.3,279.1,232.6,279.1,231.7z"/>
<path class="st4" d="M329.9,229.8c0-1.1,0.1-2,0.4-2.9s0.7-1.7,1.2-2.4s1.1-1.2,1.9-1.6c0.7-0.4,1.6-0.6,2.6-0.6
	c0.9,0,1.8,0.2,2.4,0.5c0.7,0.4,1.3,0.9,1.8,1.6v-8.5h1.3v21h-0.7c-0.2,0-0.4-0.1-0.4-0.4l-0.1-2.2c-0.6,0.9-1.3,1.5-2.2,2
	s-1.8,0.8-2.8,0.8c-1.7,0-3-0.6-4-1.8C330.4,234.1,329.9,232.2,329.9,229.8z M331.3,229.8c0,2.1,0.4,3.7,1.2,4.7
	c0.8,1,1.9,1.5,3.3,1.5c0.9,0,1.8-0.2,2.5-0.7s1.4-1.2,2-2v-7.6c-0.5-0.8-1.1-1.4-1.8-1.7c-0.7-0.3-1.4-0.5-2.2-0.5
	c-0.8,0-1.5,0.2-2.2,0.5s-1.1,0.7-1.5,1.3s-0.7,1.2-0.9,2C331.4,228,331.3,228.8,331.3,229.8z"/>
<path class="st3" d="M382.5,217.6c0-0.2,0-0.3,0.1-0.5s0.2-0.3,0.3-0.4c0.1-0.1,0.2-0.2,0.4-0.3c0.1-0.1,0.3-0.1,0.5-0.1
	s0.3,0,0.5,0.1s0.3,0.2,0.4,0.3s0.2,0.3,0.3,0.4s0.1,0.3,0.1,0.5s0,0.3-0.1,0.5s-0.2,0.3-0.3,0.4s-0.2,0.2-0.4,0.3
	c-0.2,0.1-0.3,0.1-0.5,0.1s-0.3,0-0.5-0.1s-0.3-0.2-0.4-0.3s-0.2-0.3-0.3-0.4S382.5,217.8,382.5,217.6z M383.1,236.9v-14.3h1.3v14.3
	H383.1z"/>
<path class="st2" d="M424.7,229.7c0-1.1,0.1-2.1,0.4-3s0.7-1.7,1.2-2.3s1.2-1.1,2-1.5c0.8-0.3,1.7-0.5,2.7-0.5s1.9,0.2,2.7,0.5
	c0.8,0.3,1.4,0.8,2,1.5c0.5,0.6,0.9,1.4,1.2,2.3c0.3,0.9,0.4,1.9,0.4,3s-0.1,2.1-0.4,3s-0.7,1.7-1.2,2.3s-1.2,1.1-2,1.5
	S432,237,431,237s-1.9-0.2-2.7-0.5s-1.4-0.8-2-1.5c-0.5-0.6-1-1.4-1.2-2.3C424.8,231.9,424.7,230.9,424.7,229.7z M426,229.7
	c0,1,0.1,1.8,0.3,2.6c0.2,0.8,0.5,1.4,0.9,2c0.4,0.5,0.9,1,1.6,1.3c0.6,0.3,1.3,0.4,2.2,0.4s1.6-0.1,2.2-0.4s1.1-0.7,1.6-1.3
	c0.4-0.5,0.7-1.2,0.9-2c0.2-0.8,0.3-1.6,0.3-2.6c0-0.9-0.1-1.8-0.3-2.6c-0.2-0.8-0.5-1.4-0.9-2s-0.9-1-1.6-1.3s-1.3-0.4-2.2-0.4
	s-1.6,0.1-2.2,0.4c-0.6,0.3-1.1,0.7-1.6,1.3s-0.7,1.2-0.9,2S426,228.8,426,229.7z"/>
</svg>
