<?xml version="1.0" encoding="utf-8"?>
<!-- Generator: Adobe Illustrator 19.2.1, SVG Export Plug-In . SVG Version: 6.00 Build 0)  -->
<svg version="1.1" id="Capa_1" xmlns="http://www.w3.org/2000/svg" xmlns:xlink="http://www.w3.org/1999/xlink" x="0px" y="0px"
	 viewBox="0 0 259.3 151.2" style="enable-background:new 0 0 259.3 151.2;" xml:space="preserve">
<style type="text/css">
	.st0{fill:none;stroke:#FFFFFF;stroke-width:4;stroke-miterlimit:10;}
	.st1{fill:#FFFFFF;}
</style>
<path class="st0" d="M119.7,66.1c-13.2-4.2-22.8-16.6-22.8-31.3C96.9,16.7,111.6,2,129.7,2s32.8,14.7,32.8,32.8
	c0,14.7-9.6,27.1-22.9,31.3"/>
<path class="st1" d="M164.3,75.1l-21.2-4.5V36c0-8-5.5-14.5-13.5-14.5h-0.2c-8,0-13.5,6.5-13.5,14.5V90L96,81.4
	c-4-1.7-8.6-1.3-12.2,1.1c-3.6,2.4-5.8,6.4-5.8,10.8v0.2c0,3.7,1.6,7.2,4.3,9.6l33.6,29.8v14.5c0,2.1,1.7,3.8,3.8,3.8
	s3.8-1.7,3.8-3.8v-16.2c0-1.1-0.5-2.1-1.3-2.8l-34.8-31c-1.2-1-1.8-2.5-1.8-4v-0.2c0-1.8,0.9-3.5,2.4-4.5c1.5-1,3.4-1.2,5.1-0.5
	l25.1,10.8c0.2,0.1,0.5,0.2,0.7,0.2c0.4,0.1,0.8,0.1,1.1,0.1c0.1,0,0.1,0,0.2,0c0.1,0,0.1,0,0.2,0c0.1,0,0.1,0,0.2-0.1
	c0,0,0.1,0,0.1,0c0.1,0,0.2-0.1,0.2-0.1c0,0,0.1,0,0.1,0c0.1,0,0.2-0.1,0.2-0.1c0,0,0.1,0,0.1-0.1c0.1,0,0.1-0.1,0.2-0.1
	c0,0,0.1,0,0.1-0.1c0.1,0,0.1-0.1,0.2-0.1c0,0,0.1-0.1,0.1-0.1c0,0,0.1-0.1,0.1-0.1c0.1,0,0.1-0.1,0.2-0.1c0,0,0.1-0.1,0.1-0.1
	c0-0.1,0.1-0.1,0.1-0.2c0,0,0.1-0.1,0.1-0.1c0-0.1,0.1-0.1,0.1-0.2c0-0.1,0.1-0.1,0.1-0.2c0,0,0-0.1,0.1-0.1
	c0.2-0.3,0.3-0.7,0.4-1.1c0.1-0.3,0.1-0.5,0.1-0.8V36c0-3.8,2.1-7,6-7h0.2c3.8,0,6,3.1,6,7v37c0,0.1,0,0.3,0,0.4
	c-0.2,2,1.2,3.8,3.1,4.1l24.4,5c0,0,0,0,0.1,0c13.6,1.9,23.8,13.7,23.8,27.4v0.4c0,6.3-1.5,12.7-4.5,18.3l-10.2,17
	c-1,1.8-0.2,4.1,1.6,5.1c0.6,0.3,1.1,0.4,1.7,0.4c1.4,0,2.7-0.7,3.3-2l10.2-17c3.5-6.7,5.3-14.2,5.3-21.8V110
	c0-8.5-3.1-16.7-8.6-23.1C180.4,80.5,172.7,76.3,164.3,75.1z"/>
<polygon class="st1" points="0,34.3 29.9,5.3 29.9,63.3 "/>
<line class="st0" x1="96.9" y1="34.8" x2="29.9" y2="34.8"/>
<polygon class="st1" points="259.3,34.8 229.4,63.8 229.4,5.7 "/>
<line class="st0" x1="162.4" y1="34.3" x2="229.4" y2="34.3"/>
</svg>
